<svg xmlns="http://www.w3.org/2000/svg" width="37" height="37">
    <path fill-rule="evenodd" fill="#1E88E5" d="M36.998 33.154c-.001 1.84-1.102 3.303-2.81 3.724a4.228 4.228 0 0 1-.99.118c-7.729.005-15.457.001-23.185-.006-1.858-.002-3.39-1.161-3.719-2.905-.146-.772-.088-1.585-.116-2.38-.01-.28-.002-.559-.002-.889-.783 0-1.527.034-2.265-.011-.519-.031-1.059-.093-1.542-.273C.903 29.99.01 28.652.008 27.023A7491.68 7491.68 0 0 1 .01 3.798C.014 1.602 1.635.013 3.835.01 11.576 0 19.317-.004 27.058.002c2.145.001 3.745 1.617 3.764 3.764.007.782.001 1.565.001 2.403h2.249c2.347.002 3.926 1.575 3.926 3.915.001 7.69.002 15.38 0 23.07zm-9.537-4.764-7.725-12.889c-.138.22-.234.366-.323.515-1.9 3.162-3.796 6.325-5.699 9.484-.569.946-1.526.99-2.187.11-.88-1.173-1.757-2.348-2.637-3.52-.08-.108-.172-.206-.292-.345L3.61 28.39h23.851zm-.567-25.98c-7.664.023-15.328.02-22.991-.011-.971-.003-1.509.702-1.506 1.487.025 7.176.014 14.351.014 21.526v.418l.105.039c.093-.117.191-.229.28-.349 1.589-2.118 3.202-4.219 4.752-6.366.518-.718 1.648-.741 2.154-.008.796 1.152 1.67 2.25 2.512 3.37.082.108.175.208.296.353l1.375-2.291c1.572-2.622 3.148-5.242 4.712-7.87.275-.463.639-.719 1.186-.705.518.014.842.288 1.099.718 2.381 3.981 4.77 7.955 7.158 11.932.087.145.181.288.272.432l.081-.032v-.413c0-6.906-.012-13.81.015-20.715.004-.917-.603-1.519-1.514-1.515zm7.67 7.503c-.001-.783-.524-1.303-1.302-1.311-.308-.003-.617-.001-.925-.001h-1.514v.555c0 5.902.003 11.805-.005 17.706 0 .382-.031.775-.121 1.144-.416 1.717-1.874 2.819-3.713 2.819-5.953.001-11.907-.005-17.86-.007h-.538c0 .817.043 1.566-.011 2.306-.062.842.588 1.474 1.474 1.471 7.676-.029 15.352-.021 23.029-.024 1.025 0 1.487-.458 1.487-1.474V17.705c0-2.598.002-5.195-.001-7.792zm-23.369.475a2.194 2.194 0 1 1-.001-4.389 2.194 2.194 0 0 1 .001 4.389z"/>
</svg>
